<svg xmlns="http://www.w3.org/2000/svg" viewBox="0 0 512 512" role="img" aria-label="Muslim App Icon">
  <defs>
    <linearGradient id="bg" x1="0" y1="0" x2="1" y2="1">
      <stop offset="0" stop-color="#2d6a4f"/>
      <stop offset="1" stop-color="#0f291e"/>
    </linearGradient>
    <linearGradient id="book-cover" x1="0" y1="0" x2="1" y2="0">
      <stop offset="0" stop-color="#d4a373"/>
      <stop offset="0.5" stop-color="#e8c98a"/>
      <stop offset="1" stop-color="#b9935a"/>
    </linearGradient>
    <linearGradient id="bead" x1="0" y1="0" x2="1" y2="1">
      <stop offset="0" stop-color="#e8c98a"/>
      <stop offset="1" stop-color="#b9935a"/>
    </linearGradient>
  </defs>

  <rect width="512" height="512" rx="112" fill="url(#bg)"/>

  <ellipse cx="256" cy="370" rx="155" ry="18" fill="rgba(0,0,0,0.15)"/>

  <path d="M256 195 Q100 175 70 310 L75 380 Q120 340 256 380 Z" fill="url(#book-cover)"/>
  <path d="M256 195 Q412 175 442 310 L437 380 Q392 340 256 380 Z" fill="url(#book-cover)"/>

  <path d="M256 195 L256 380" stroke="#8b6914" stroke-width="4" stroke-linecap="round" fill="none"/>

  <path d="M256 220 Q120 202 95 315 L99 370 Q132 335 256 368 Z" fill="#f5efe0"/>
  <path d="M256 220 Q392 202 417 315 L413 370 Q380 335 256 368 Z" fill="#f5efe0"/>

  <g stroke="#8b7355" stroke-width="4" stroke-linecap="round" opacity="0.25">
    <line x1="120" y1="265" x2="230" y2="250"/>
    <line x1="115" y1="290" x2="235" y2="275"/>
    <line x1="112" y1="315" x2="238" y2="300"/>
    <line x1="110" y1="340" x2="240" y2="325"/>

    <line x1="282" y1="250" x2="392" y2="265"/>
    <line x1="277" y1="275" x2="397" y2="290"/>
    <line x1="274" y1="300" x2="400" y2="315"/>
    <line x1="272" y1="325" x2="402" y2="340"/>
  </g>

  <path d="M256 70 Q230 100 256 195" stroke="#b9935a" stroke-width="3" stroke-linecap="round" fill="none" opacity="0.6"/>

  <circle cx="256" cy="75" r="26" fill="url(#bead)"/>
  <circle cx="250" cy="69" r="10" fill="rgba(255,255,255,0.25)"/>
  <circle cx="256" cy="75" r="34" fill="none" stroke="#b9935a" stroke-width="2" opacity="0.25"/>
</svg>
